<?xml version="1.0" encoding="UTF-8"?>
<svg xmlns="http://www.w3.org/2000/svg" width="73" height="80" viewBox="0 0 73 80" fill="none">
    <path
        d="M59.8331 73.3333H5.8331C4.94421 73.3333 2.89977 72.9333 1.8331 71.3333C0.766436 69.7333 1.38866 67.5556 1.8331 66.6667L29.1664 24C29.6109 23.3333 30.8998 22 32.4998 22C34.0998 22 35.8331 23.3333 36.4998 24L63.1664 66.6667C63.3887 67.7778 63.6998 70.2667 63.1664 71.3333C62.6331 72.4 60.722 73.1111 59.8331 73.3333Z"
        fill="white"></path>
    <path
        d="M64.3059 66.0492C66.6238 69.7276 64.0142 74.5599 59.6958 74.5599H5.83029C1.51225 74.5599 -1.09654 69.7282 1.22042 66.0488L6.28205 58.0256L28.1541 23.3225C30.3051 19.9171 35.2209 19.9171 37.3725 23.3234L54.0225 49.736L64.3059 66.0492ZM62.2951 67.332L52.0119 51.019L35.3624 24.6073C34.1468 22.6828 31.3793 22.6828 30.1642 24.6063L8.29254 59.3089L3.23116 67.3317C1.91521 69.4214 3.39622 72.1644 5.83029 72.1644H59.6958C62.1302 72.1644 63.6116 69.4213 62.2951 67.332Z"
        fill="#4F5661"></path>
    <path fill-rule="evenodd" clip-rule="evenodd"
        d="M32.9538 37.5369H30.0395C29.4645 37.5369 29.0086 38.1297 29.0467 38.7634L29.9086 52.9638C29.9443 53.5411 30.3776 54.0166 30.9014 54.0166H32.9538H35.0074C35.53 54.0166 35.9645 53.5686 35.999 52.9913L36.8609 38.7634C36.899 38.1297 36.4443 37.5369 35.8681 37.5369H32.9538Z"
        fill="#53C27C"></path>
    <path fill-rule="evenodd" clip-rule="evenodd"
        d="M36.4543 61.3922C36.4543 63.3206 34.8995 64.8849 32.9817 64.8849C31.065 64.8849 29.5103 63.3206 29.5103 61.3922C29.5103 59.4627 31.065 57.8984 32.9817 57.8984C34.8995 57.8984 36.4543 59.4627 36.4543 61.3922Z"
        fill="#53C27C"></path>
    <path
        d="M8.36351 32.6731L4.19684 28.481C3.49948 27.7794 2.36883 27.7794 1.67146 28.481C0.974096 29.1827 0.974096 30.3202 1.67146 31.0218L5.83813 35.2139C6.53549 35.9155 7.66614 35.9155 8.36351 35.2139C9.06087 34.5123 9.06087 33.3748 8.36351 32.6731Z"
        fill="#CFE6F0"></path>
    <path
        d="M34.4816 12.9831V5.79661C34.4816 4.80437 33.6821 4 32.6959 4C31.7096 4 30.9102 4.80437 30.9102 5.79661V12.9831C30.9102 13.9753 31.7096 14.7797 32.6959 14.7797C33.6821 14.7797 34.4816 13.9753 34.4816 12.9831Z"
        fill="#CFE6F0"></path>
    <path
        d="M17.7015 20.7365L14.1301 11.1545C13.7838 10.2255 12.7545 9.75476 11.8311 10.1032C10.9076 10.4516 10.4398 11.4871 10.7861 12.4162L14.3575 21.9981C14.7038 22.9272 15.7331 23.3979 16.6565 23.0495C17.5799 22.7011 18.0478 21.6655 17.7015 20.7365Z"
        fill="#CFE6F0"></path>
    <path
        d="M59.5538 35.2139L63.7204 31.0218C64.4178 30.3202 64.4178 29.1827 63.7204 28.481C63.0231 27.7794 61.8924 27.7794 61.1951 28.481L57.0284 32.6731C56.331 33.3748 56.331 34.5123 57.0284 35.2139C57.7258 35.9155 58.8564 35.9155 59.5538 35.2139Z"
        fill="#CFE6F0"></path>
    <path
        d="M49.8294 21.4357L53.4009 12.4526C53.7671 11.5313 53.3218 10.4858 52.4061 10.1173C51.4904 9.74875 50.4512 10.1969 50.0849 11.1181L46.5134 20.1012C46.1472 21.0224 46.5926 22.068 47.5082 22.4365C48.4239 22.805 49.4632 22.3569 49.8294 21.4357Z"
        fill="#CFE6F0"></path>
</svg> 