<svg fill="#fff" height="15" viewBox="0 2 13 11" width="15" xmlns="http://www.w3.org/2000/svg">
    <g clip-rule="evenodd" fill="#fff" fill-rule="evenodd">
        <path
            d="m5.45053 2.06557c1.44744 0 2.62557 1.11566 2.62557 2.48634v1.98907h1.12525v-1.98907c0-1.95852-1.68262-3.55191-3.75082-3.55191-2.06821 0-3.75082 1.59339-3.75082 3.55191v1.98907h1.12524v-1.98907c0-1.37068 1.17814-2.48634 2.62558-2.48634z"
            stroke="#0097e6" stroke-width=".15"></path>
        <path
            d="m0 7.58126c0-.22155.195307-.40115.434215-.40115h10.383985c.2399 0 .4343.18241.4343.40115v6.01734c0 .2216-.1953.4012-.4343.4012h-10.383985c-.23981 0-.434215-.1824-.434215-.4012zm6.08173 3.79354c.55329-.1721.95111-.6489.95111-1.2102 0-.70618-.62974-1.27867-1.40656-1.27867s-1.40656.57249-1.40656 1.27867c0 .5612.39768 1.038.95083 1.2101-.00868.0356-.01327.0729-.01327.1112v.341c0 .2589.20991.4688.46885.4688s.46885-.2099.46885-.4688v-.341c0-.0383-.00459-.0755-.01325-.1111z"></path>
    </g>
</svg>